<?xml version="1.0" encoding="UTF-8" standalone="no"?>
<!DOCTYPE svg PUBLIC "-//W3C//DTD SVG 1.1//EN"
 "http://www.w3.org/Graphics/SVG/1.1/DTD/svg11.dtd">
<!-- Generated by graphviz version 2.28.0 (20111207.2101)
 -->
<!-- Title: normal Pages: 1 -->
<svg width="206pt" height="169pt"
 viewBox="0.00 0.00 206.41 168.82" xmlns="http://www.w3.org/2000/svg" xmlns:xlink="http://www.w3.org/1999/xlink">
<g id="graph1" class="graph" transform="scale(1 1) rotate(0) translate(4 164.815)">
<title>normal</title>
<polygon fill="white" stroke="white" points="-4,5 -4,-164.815 203.413,-164.815 203.413,5 -4,5"/>
<!-- A -->
<g id="node1" class="node"><title>A</title>
<ellipse fill="none" stroke="black" cx="27" cy="-141.868" rx="27" ry="18"/>
<text text-anchor="middle" x="27" y="-137.268" font-family="Times,serif" font-size="14.00">5</text>
</g>
<!-- B -->
<g id="node2" class="node"><title>B</title>
<ellipse fill="none" stroke="black" cx="171.413" cy="-142.815" rx="27" ry="18"/>
<text text-anchor="middle" x="171.413" y="-138.215" font-family="Times,serif" font-size="14.00">5</text>
</g>
<!-- A&#45;&gt;B -->
<g id="edge2" class="edge"><title>A&#45;&gt;B</title>
<path fill="none" stroke="black" d="M64.3946,-142.113C85.9129,-142.254 112.853,-142.431 134.321,-142.572"/>
<polygon fill="black" stroke="black" points="64.1857,-138.612 54.1629,-142.046 64.1397,-145.612 64.1857,-138.612"/>
<polygon fill="black" stroke="black" points="134.349,-146.072 144.372,-142.638 134.395,-139.072 134.349,-146.072"/>
</g>
<!-- C -->
<g id="node3" class="node"><title>C</title>
<ellipse fill="none" stroke="black" cx="100.184" cy="-18" rx="27" ry="18"/>
<text text-anchor="middle" x="100.184" y="-13.4" font-family="Times,serif" font-size="14.00">5</text>
</g>
<!-- A&#45;&gt;C -->
<g id="edge6" class="edge"><title>A&#45;&gt;C</title>
<path fill="none" stroke="black" d="M42.1867,-116.163C54.7619,-94.8795 72.5385,-64.7918 85.0884,-43.5504"/>
<polygon fill="black" stroke="black" points="39.096,-114.514 37.0225,-124.904 45.1227,-118.075 39.096,-114.514"/>
<polygon fill="black" stroke="black" points="88.2093,-45.1487 90.2828,-34.7587 82.1826,-41.5879 88.2093,-45.1487"/>
</g>
<!-- B&#45;&gt;C -->
<g id="edge4" class="edge"><title>B&#45;&gt;C</title>
<path fill="none" stroke="black" d="M156.791,-117.193C144.565,-95.7692 127.206,-65.3514 114.942,-43.8611"/>
<polygon fill="black" stroke="black" points="153.81,-119.032 161.807,-125.982 159.89,-115.562 153.81,-119.032"/>
<polygon fill="black" stroke="black" points="117.862,-41.9156 109.866,-34.9651 111.782,-45.3851 117.862,-41.9156"/>
</g>
</g>
</svg>
